<svg width="47" height="47" viewBox="0 0 47 47" fill="none" xmlns="http://www.w3.org/2000/svg">
<path fill-rule="evenodd" clip-rule="evenodd" d="M8.00082 24C10.7617 24 13 26.6869 13 30C13 33.3131 10.7617 36 8.00082 36C5.23997 36 3 33.3131 3 30C3 26.6869 5.23835 24 8.00082 24Z" fill="white" stroke="black" stroke-width="2" stroke-linecap="round"/>
<path fill-rule="evenodd" clip-rule="evenodd" d="M18 11L19 15Z" fill="white"/>
<path d="M18 11L19 15" stroke="black" stroke-width="2" stroke-linecap="round"/>
<path fill-rule="evenodd" clip-rule="evenodd" d="M38.9992 24C41.7616 24 44 26.6869 44 30C44 33.3131 41.7616 36 38.9992 36C36.2367 36 34 33.3131 34 30C34 26.6869 36.2383 24 38.9992 24Z" fill="white" stroke="black" stroke-width="2" stroke-linecap="round"/>
<path d="M17 12C18.6569 12 20 10.6569 20 9C20 7.34315 18.6569 6 17 6C15.3431 6 14 7.34315 14 9C14 10.6569 15.3431 12 17 12Z" fill="white" stroke="black" stroke-width="2" stroke-linecap="round"/>
<path fill-rule="evenodd" clip-rule="evenodd" d="M23.5 14C43.2996 14 40.9096 33.4362 40.9096 33.4362C40.9096 37.0609 38.1111 40 34.6576 40H12.3424C8.8889 40 6.09038 37.0609 6.09038 33.4362C6.09038 33.4362 3.70041 14 23.5 14Z" fill="white" stroke="black" stroke-width="2" stroke-linecap="round"/>
<path fill-rule="evenodd" clip-rule="evenodd" d="M17.2356 23H28.7645C30.4184 23.0003 32.0045 23.6447 33.1739 24.7914C34.3432 25.938 35.0001 27.493 35 29.1144V29.8872C35 30.6899 34.8388 31.4848 34.5254 32.2265C34.212 32.9681 33.7527 33.642 33.1737 34.2096C32.5947 34.7773 31.9073 35.2275 31.1507 35.5347C30.3942 35.8419 29.5833 36 28.7645 36H17.2356C16.4167 36 15.6058 35.8419 14.8493 35.5347C14.0928 35.2275 13.4053 34.7773 12.8263 34.2096C12.2473 33.642 11.788 32.9681 11.4746 32.2265C11.1613 31.4848 11 30.6899 11 29.8872V29.1144C10.9999 27.493 11.6568 25.938 12.8262 24.7914C13.9956 23.6447 15.5816 23.0003 17.2356 23Z" fill="#02AFB9" stroke="black" stroke-width="2" stroke-linecap="round"/>
<path d="M21 32C21 32 23.5 33.5 26 32" stroke="white" stroke-width="2" stroke-linecap="round"/>
<path fill-rule="evenodd" clip-rule="evenodd" d="M17.4137 26H17.5863C17.961 25.9999 18.3204 26.1455 18.5855 26.4049C18.8506 26.6643 18.9997 27.0162 19 27.3832V29.6151C19 29.797 18.9635 29.9771 18.8925 30.1451C18.8214 30.3131 18.7173 30.4658 18.586 30.5944C18.4547 30.723 18.2989 30.825 18.1273 30.8946C17.9558 30.9642 17.772 31 17.5863 31H17.4137C17.2281 31 17.0442 30.9642 16.8727 30.8946C16.7012 30.825 16.5453 30.723 16.414 30.5944C16.2828 30.4658 16.1786 30.3131 16.1076 30.1451C16.0365 29.9771 16 29.797 16 29.6151V27.3832C16.0003 27.0162 16.1495 26.6643 16.4146 26.4049C16.6797 26.1455 17.0391 25.9999 17.4137 26Z" fill="white"/>
<path fill-rule="evenodd" clip-rule="evenodd" d="M28.4095 26H28.5888C28.9628 25.9999 29.3216 26.1455 29.5862 26.4049C29.8508 26.6643 29.9997 27.0162 30 27.3832V29.6151C30 29.797 29.9636 29.9771 29.8926 30.1451C29.8217 30.3131 29.7178 30.4658 29.5867 30.5944C29.4557 30.723 29.3001 30.825 29.1289 30.8946C28.9576 30.9642 28.7741 31 28.5888 31H28.4095C28.0355 30.9997 27.6769 30.8536 27.4126 30.5939C27.1483 30.3342 26.9999 29.9821 27 29.6151V27.3832C27 27.0164 27.1485 26.6645 27.4129 26.4051C27.6772 26.1457 28.0357 26 28.4095 26Z" fill="white"/>
</svg>
